# xmcd
#
# Track frame offsets: 
#        150
#        15091
#        30714
#        46573
#        57252
#        79825
#        93498
#        109205
#
# Disc length: 1593 seconds
#
# Revision: 0
# Processed by: cddbd v1.5.2PL0 Copyright (c) Steve Scherf et al.
# Submitted via: ExactAudioCopyFreeDBPlugin 1.0
#
DISCID=52063708
DTITLE=Aja and Toni Eberle - Sweet Dreams [CD2)
DYEAR=2014
DGENRE=Soul
TTITLE0=Justice
TTITLE1=Sweet Dreams
TTITLE2=Child in You
TTITLE3=Don't Care
TTITLE4=Throw it away
TTITLE5=Fresh
TTITLE6=At Last
TTITLE7=Fresh Jam
EXTD=
EXTT0=
EXTT1=
EXTT2=
EXTT3=
EXTT4=
EXTT5=
EXTT6=
EXTT7=
PLAYORDER=
